<svg width="129" height="46" viewBox="0 0 129 46" fill="none" xmlns="http://www.w3.org/2000/svg">
<g clip-path="url(#clip0_16_54)">
<path d="M39.99 45.4633C39.3071 45.08 38.8518 44.5433 38.4724 43.93C38.0929 43.24 37.9412 42.55 37.9412 41.7833C37.9412 41.0167 38.0929 40.25 38.4724 39.6367C38.8518 38.9467 39.3829 38.41 40.0659 38.0267C40.7488 37.6433 41.4318 37.4133 42.2665 37.4133C42.9494 37.4133 43.7082 37.5667 44.3912 37.95V39.79C43.7082 39.1767 43.0253 38.87 42.2665 38.87C41.8112 38.87 41.3559 39.0233 40.9006 39.2533C40.5212 39.4833 40.1418 39.8667 39.9141 40.25C39.6865 40.71 39.5347 41.17 39.5347 41.7067C39.5347 42.2433 39.6865 42.7033 39.9141 43.0867C40.1418 43.5467 40.4453 43.8533 40.9006 44.0833C41.28 44.3133 41.7353 44.4667 42.2665 44.4667C42.6459 44.4667 43.0253 44.39 43.3288 44.2367C43.6324 44.0833 44.0118 43.8533 44.3912 43.5467V45.4633C44.0876 45.6167 43.7082 45.77 43.3288 45.8467C42.9494 45.9233 42.57 46 42.1906 46C41.3559 46 40.5971 45.8467 39.99 45.4633ZM51.6 44.39H48.4129V42.09H51.4482V40.6333H48.4129V38.9467H51.6V37.49H46.8194V45.8467H51.6V44.39ZM55.2424 37.49H54.1041V45.8467H55.6976V40.3267L60.4782 45.8467H61.6165V37.49H60.0229L60.0988 43.0867L55.2424 37.49ZM67.0041 39.0233H68.8253V37.49H63.5135V39.0233H65.3347V45.77H67.0041V39.0233ZM74.2888 42.4733C74.82 42.2433 75.2753 41.9367 75.5788 41.4767C75.8823 41.0933 76.0341 40.6333 76.0341 40.0967C76.0341 39.2533 75.7306 38.5633 75.1994 38.18C74.5924 37.7967 73.8335 37.5667 72.8471 37.5667H70.8741V45.9233H72.5435V42.7033H72.7712L74.82 45.9233H76.7929L74.2888 42.4733ZM72.8471 38.9467C73.3782 38.9467 73.7576 39.0233 73.9853 39.2533C74.2129 39.4067 74.3647 39.7133 74.3647 40.0967C74.3647 40.48 74.2129 40.7867 73.9853 41.0167C73.6818 41.2467 73.3024 41.3233 72.8471 41.3233H72.4676V38.9467H72.8471ZM82.3324 37.49H81.1941L77.5518 45.8467H79.2971L80.0559 44.0833H83.3188L84.0018 45.8467H85.8229L82.3324 37.49ZM81.1182 41.4767C81.4218 40.71 81.6494 40.1733 81.7253 39.79C81.8771 40.1733 82.0288 40.71 82.3324 41.4767L82.7876 42.7033H80.5871L81.1182 41.4767ZM91.6659 44.3133H89.2376V37.49H87.5682V45.8467H91.6659V44.3133ZM24.2065 0.383333L14.7971 17.3267L5.38765 0.383333L0 25.2233H4.17353L7.13294 11.1933L14.7971 24.9167L22.4612 11.1933L25.4206 25.2233H29.5941L24.2065 0.383333ZM31.7188 17.0967C31.7188 22.1567 35.1335 25.6067 40.4453 25.6067C42.3424 25.6067 44.2394 25.1467 45.8329 24.15V20.3933C44.2394 21.5433 42.4941 22.08 40.7488 22.08C37.6376 22.08 35.6647 20.1633 35.6647 17.02C35.6647 13.8767 37.7135 11.8067 40.8247 11.8067C42.57 11.8067 44.3912 12.42 45.7571 13.4933V9.73667C44.3153 8.74 42.4182 8.28 40.5212 8.28C35.4371 8.35667 31.7188 11.8833 31.7188 17.0967ZM49.5512 12.9567C49.5512 20.5467 54.7112 25.6067 62.4512 25.6067C65.2588 25.6067 68.0665 24.9167 70.2671 23.46V19.1667C68.1423 20.8533 65.2588 21.7733 62.5271 21.7733C57.1394 21.7733 53.7247 18.3233 53.7247 12.9567C53.7247 7.51333 57.3671 3.75667 62.6029 3.75667C65.2588 3.75667 68.0665 4.75333 70.1912 6.36333V2.14667C67.9906 0.69 65.1829 0 62.3753 0C54.8629 0 49.5512 5.36667 49.5512 12.9567ZM86.5059 16.9433C86.5059 20.01 84.6088 22.1567 81.8012 22.1567C78.9935 22.1567 77.0965 20.01 77.0965 16.9433C77.0965 13.8767 78.9935 11.73 81.8012 11.73C84.6088 11.8067 86.5059 13.8767 86.5059 16.9433ZM86.8094 10.9633C85.6712 9.27667 83.6982 8.35667 81.4218 8.35667C76.6412 8.35667 73.2265 12.0367 73.2265 17.02C73.2265 21.9267 76.6412 25.6067 81.3459 25.6067C83.7741 25.6067 85.6712 24.61 86.8094 22.9233V25.2233H90.3759V8.89333H86.8094V10.9633ZM109.802 15.1033C109.802 11.04 107.222 8.35667 103.504 8.35667C101.227 8.35667 99.4818 9.27667 98.3435 10.9633V8.81667H94.7012V25.1467H98.4953V17.71C98.4953 13.9533 100.089 11.73 102.669 11.73C104.718 11.73 105.932 13.1867 105.932 15.7167V25.1467H109.726V15.1033M129 15.1033C129 11.04 126.42 8.35667 122.702 8.35667C120.425 8.35667 118.68 9.27667 117.542 10.9633V8.81667H113.899V25.1467H117.694V17.71C117.694 13.9533 119.287 11.73 121.867 11.73C123.916 11.73 125.13 13.1867 125.13 15.7167V25.1467H128.924V15.1033" fill="currentcolor"/>
</g>
<defs>
<clipPath id="clip0_16_54">
<rect width="129" height="46" fill="currentcolor"/>
</clipPath>
</defs>
</svg>
