<svg width="183" height="33" viewBox="0 0 183 33" fill="none" xmlns="http://www.w3.org/2000/svg">
<path d="M87.1494 20.7625C86.8732 20.2125 86.7351 19.5938 86.666 18.975C86.597 17.875 86.5279 16.775 86.5279 15.675V1.375H80.9343C81.0725 1.375 81.2106 1.44375 81.3487 1.5125C81.763 1.65 82.1774 1.925 82.5226 2.26875C82.937 2.68125 83.1441 3.1625 83.2823 3.7125C83.4204 4.5375 83.4894 5.43125 83.4894 6.25625V18.3563C83.4894 19.1812 83.4204 20.075 83.2823 20.9C83.1441 21.45 82.8679 21.9312 82.5226 22.3438C82.1774 22.6875 81.8321 22.9625 81.3487 23.1C81.2106 23.1687 81.0725 23.1687 80.9343 23.2375H91.3619C90.5332 23.1687 89.7736 23.0312 89.014 22.6875C88.1853 22.2062 87.5638 21.5875 87.1494 20.7625ZM40.6743 1.58125C40.0528 1.44375 39.5004 1.375 38.9479 1.375H44.4725L44.6796 5.5C44.5415 5.01875 44.4034 4.5375 44.1272 4.125C43.7819 3.4375 43.2294 2.8875 42.6079 2.475C41.9864 1.99375 41.3649 1.71875 40.6743 1.58125ZM45.0249 21.0375C44.4034 21.7938 43.6438 22.3438 42.746 22.6875C41.9174 22.9625 41.0887 23.1 40.26 23.1688H46.406L46.6132 17.7375C46.4751 18.2875 46.2679 18.8375 46.0608 19.3875C45.7845 20.0063 45.4392 20.5562 45.0249 21.0375ZM34.3211 20.7625C34.0449 20.2125 33.9068 19.5938 33.8377 18.975C33.7687 17.875 33.6996 16.775 33.6996 15.675V1.375H28.106C28.2442 1.375 28.3823 1.44375 28.5204 1.5125C28.9347 1.65 29.3491 1.925 29.6943 2.26875C30.1087 2.68125 30.3158 3.1625 30.454 3.7125C30.5921 4.5375 30.6611 5.43125 30.6611 6.25625V18.3563C30.6611 19.1812 30.5921 20.075 30.454 20.9C30.3158 21.45 30.0396 21.9312 29.6943 22.3438C29.3491 22.6875 29.0038 22.9625 28.5204 23.1C28.3823 23.1687 28.2442 23.1687 28.106 23.2375H38.5336C37.7049 23.1687 36.9453 23.0312 36.1857 22.6875C35.2879 22.2062 34.6664 21.5875 34.3211 20.7625ZM38.6717 10.725C38.3264 11.1375 37.843 11.4125 37.2906 11.4813C36.7381 11.6188 36.1166 11.6875 35.5642 11.6875C36.0476 11.6875 36.5309 11.7562 37.0143 11.8937C37.5668 12.0312 38.0502 12.3062 38.3955 12.7188C38.7408 13.1313 39.086 13.6125 39.2932 14.0938C39.4313 14.4375 39.5004 14.85 39.5694 15.1938L39.6385 8.59375C39.5694 8.86875 39.5004 9.14375 39.4313 9.41875C39.2932 9.9 39.017 10.3813 38.6717 10.725ZM102.066 7.49375C102.894 9.2125 103.378 11.1375 103.309 13.1313C103.309 14.575 103.102 15.95 102.618 17.325C102.204 18.5625 101.513 19.6625 100.615 20.5562C99.4415 21.7937 97.8532 22.55 96.1268 22.825C95.0219 23.0312 93.917 23.1 92.8121 23.1688C93.5026 23.1 94.1242 22.8938 94.7457 22.6188C95.8506 22.1375 96.7483 21.3125 97.4389 20.4188C98.1985 19.3875 98.82 18.2875 99.2343 17.05C99.6487 15.7437 99.8559 14.3687 99.8559 12.9937C99.8559 11.4812 99.6487 9.96875 99.0962 8.45625C98.6128 7.08125 97.9223 5.84375 97.0245 4.675C95.8506 3.23125 94.2623 2.2 92.4668 1.71875C91.6381 1.5125 90.8785 1.375 90.0498 1.375C91.3619 1.375 92.2596 1.375 92.674 1.44375C94.7457 1.58125 96.7483 2.2 98.4747 3.36875C100.063 4.4 101.237 5.84375 102.066 7.49375ZM119.468 22.6188C120.228 22.9625 120.987 23.1 121.816 23.1688H111.388C112.01 23.0312 112.493 22.7563 112.977 22.275C113.391 21.8625 113.598 21.3813 113.736 20.8312C113.874 20.0063 113.943 19.1125 113.943 18.2875V6.25625C113.943 5.3625 113.874 4.46875 113.736 3.64375C113.598 3.09375 113.322 2.54375 112.908 2.13125C112.562 1.85625 112.217 1.58125 111.803 1.44375C111.734 1.44375 111.595 1.375 111.526 1.375H119.675C119.537 1.375 119.399 1.44375 119.33 1.44375C118.915 1.58125 118.501 1.7875 118.225 2.13125C117.811 2.54375 117.465 3.09375 117.396 3.64375C117.258 4.46875 117.189 5.3625 117.189 6.25625V15.675C117.189 17.1187 117.258 18.2188 117.327 18.975C117.396 19.5938 117.534 20.2125 117.811 20.8312C117.949 21.5875 118.639 22.2063 119.468 22.6188ZM129.343 19.25C129.55 18.7 129.757 18.0812 129.895 17.4625L129.688 23.1688H123.473C124.302 23.1 125.2 22.9625 125.959 22.6875C126.857 22.3438 127.686 21.7938 128.307 21.0375C128.791 20.4188 129.136 19.8687 129.343 19.25ZM144.812 22.8937C145.019 23.0312 145.295 23.1 145.571 23.1688H137.354C137.492 23.1688 137.63 23.1 137.768 23.0312C138.182 22.8937 138.597 22.6188 138.873 22.275C139.287 21.8625 139.563 21.3813 139.632 20.8312C139.771 20.0063 139.84 19.1125 139.84 18.2875V6.25625C139.84 5.43125 139.771 4.5375 139.632 3.7125C139.494 3.23125 139.287 2.75 138.942 2.3375C138.597 1.925 138.182 1.65 137.699 1.5125C137.561 1.44375 137.423 1.44375 137.285 1.375H145.433C145.295 1.375 145.157 1.44375 145.019 1.5125C144.605 1.65 144.19 1.925 143.845 2.26875C143.362 2.81875 143.016 3.50625 142.947 4.2625C142.878 4.95 142.809 5.6375 142.878 6.325V18.425C142.878 19.1812 142.947 19.8687 143.016 20.625C143.085 21.1063 143.223 21.5875 143.5 22C143.914 22.275 144.328 22.6875 144.812 22.8937ZM161.385 20.9C161.523 21.3813 161.731 21.8625 162.076 22.275C162.421 22.6875 162.835 22.9625 163.319 23.1688C163.388 23.1688 163.526 23.2375 163.595 23.2375H155.723C155.792 23.2375 155.93 23.1688 155.999 23.1688C156.413 23.0312 156.828 22.7562 157.173 22.4125C157.587 22 157.863 21.5187 158.002 20.9C158.14 20.075 158.209 19.1812 158.209 18.3563V6.1875C158.209 5.43125 158.209 4.675 158.071 3.9875C158.002 3.50625 157.863 3.025 157.587 2.6125C157.311 2.13125 156.897 1.7875 156.344 1.5125C156.137 1.44375 155.999 1.375 155.792 1.30625H161.247V18.3563C161.109 19.1812 161.178 20.0063 161.385 20.9ZM172.642 7.08125C172.642 9.00625 171.882 10.3812 170.363 11.275C169.465 11.7562 168.498 12.0312 167.462 12.1C167.117 12.1 166.15 12.1688 164.769 12.1688H164.562C164.976 12.1688 165.391 12.1 165.805 11.9625C166.426 11.7562 167.048 11.4812 167.531 11C168.084 10.45 168.567 9.83125 168.843 9.14375C169.12 8.45625 169.258 7.7 169.258 6.875C169.258 5.98125 169.12 5.0875 168.774 4.2625C168.498 3.50625 167.946 2.81875 167.324 2.3375C166.703 1.7875 165.874 1.44375 165.045 1.30625C166.15 1.30625 167.255 1.375 168.291 1.58125C169.051 1.71875 169.81 2.0625 170.432 2.6125C171.122 3.1625 171.744 3.78125 172.089 4.60625C172.503 5.3625 172.642 6.1875 172.642 7.08125ZM22.3743 22.4125C22.3743 22.275 22.3743 22.7562 22.3743 22.4125V22.4125ZM22.3743 22.4125C22.3743 27.225 18.0928 33 10.98 33C4.90302 33 0 29.3562 0 24.8187C0 21.2437 3.10755 18.15 7.45811 17.1187C5.93887 17.7375 4.62679 18.7688 3.72906 20.075C2.83132 21.3813 2.27887 22.9625 2.27887 24.6125C2.27887 29.15 6.21509 32.7938 10.98 32.7938C16.9879 32.7938 19.6121 27.8438 19.6121 24.9562C19.6121 17.6 10.0823 14.85 6.97472 12.65C6.2151 12.1 5.52453 11.4125 5.04113 10.6562C4.62679 9.96875 4.35057 9.28125 4.21245 8.45625C3.86717 6.875 4.35057 5.3625 5.04113 3.91875C5.59359 2.81875 6.49132 1.85625 7.52717 1.16875C7.04377 1.71875 6.69849 2.26875 6.49132 2.95625C6.28415 3.64375 6.2151 4.33125 6.28415 5.01875C6.42226 6.4625 7.45811 7.7 8.49396 8.59375C9.46076 9.41875 14.9162 12.1687 16.4355 13.1313C17.7475 13.9563 22.3743 17.05 22.3743 22.4125ZM18.3691 9.35C18.0238 8.25 17.7475 7.21875 17.4023 6.1875C17.057 5.225 16.0902 3.09375 14.7781 1.85625C13.9494 1.03125 12.8445 0.55 11.7396 0.4125C12.5683 0.4125 13.397 0.48125 14.1566 0.75625C14.9162 0.9625 16.4355 1.7875 17.1951 1.5125C17.8166 1.30625 18.0238 0.34375 18.1619 0L18.3 7.21875C18.3691 7.90625 18.3691 8.6625 18.3691 9.35ZM67.123 1.58125C66.5015 1.44375 65.9491 1.375 65.3966 1.375H70.9211L71.1283 5.5C70.9902 5.01875 70.8521 4.5375 70.5759 4.125C70.2306 3.4375 69.6781 2.8875 69.0566 2.475C68.5042 1.99375 67.8136 1.71875 67.123 1.58125ZM71.4736 21.0375C70.8521 21.7938 70.0925 22.3438 69.1947 22.6875C68.366 22.9625 67.5374 23.1 66.7087 23.1688H72.8547L73.0619 17.7375C72.9238 18.2875 72.7166 18.8375 72.5094 19.3875C72.2332 20.0063 71.8879 20.5562 71.4736 21.0375ZM60.7008 20.7625C60.4245 20.2125 60.2864 19.5938 60.2174 18.975C60.1483 18.2875 60.0792 17.1875 60.0792 15.675V1.375H54.5547C54.6928 1.375 54.8309 1.44375 54.9691 1.5125C55.3834 1.65 55.7977 1.925 56.143 2.26875C56.5574 2.68125 56.8336 3.1625 56.9026 3.7125C57.0408 4.5375 57.1098 5.43125 57.1098 6.25625V18.3563C57.1098 19.1812 57.0408 20.075 56.9026 20.9C56.7645 21.45 56.4883 21.9312 56.143 22.3438C55.7977 22.6875 55.4525 22.9625 54.9691 23.1C54.8309 23.1687 54.6928 23.1687 54.5547 23.2375H64.9132C64.0845 23.1687 63.3249 23.0312 62.5653 22.6875C61.7366 22.2062 61.1151 21.5875 60.7008 20.7625ZM65.1204 10.725C64.7751 11.1375 64.2917 11.4125 63.7393 11.4813C63.1868 11.6188 62.5653 11.6875 62.0128 11.6875C62.4962 11.6875 62.9796 11.7562 63.463 11.8937C64.0155 12.0312 64.4989 12.3062 64.8442 12.7188C65.1894 13.1313 65.5347 13.6125 65.6728 14.0938C65.8109 14.4375 65.88 14.85 65.9491 15.1938L66.0181 8.59375C65.9491 8.86875 65.88 9.14375 65.811 9.41875C65.7419 9.9 65.4657 10.3813 65.1204 10.725Z" fill="currentcolor"/>
<path d="M178.097 2.0625V2.40625H177.406V4.2625H176.992V2.475H176.302V2.0625H178.097ZM180.514 4.33125L180.445 3.025C180.445 2.81875 180.445 2.6125 180.445 2.40625C180.376 2.6125 180.307 2.8875 180.238 3.09375L179.823 4.33125H179.34L178.926 3.025C178.857 2.81875 178.788 2.6125 178.788 2.40625C178.788 2.6125 178.788 2.81875 178.788 3.025L178.718 4.33125H178.304L178.442 2.0625H179.133L179.547 3.1625C179.616 3.36875 179.616 3.50625 179.685 3.7125C179.754 3.50625 179.823 3.3 179.823 3.1625L180.238 2.0625H180.859L181.066 4.33125H180.514Z" fill="currentcolor"/>
<path d="M28.5894 31.6938V27.0875H29.2109L30.7302 29.425C31.0755 29.975 31.3517 30.4563 31.5589 30.9375C31.4898 30.3188 31.4898 29.7688 31.4898 29.0125V27.0875H32.0423V31.6938H31.4208L29.9706 29.3563C29.6253 28.8063 29.3491 28.325 29.0728 27.8438C29.0728 28.3938 29.1419 29.0125 29.1419 29.7688V31.7625H28.5894V31.6938Z" fill="currentcolor"/>
<path d="M40.1909 29.2875C40.1909 30.8688 39.2241 31.6938 38.0502 31.6938C36.8072 31.6938 35.9785 30.7313 35.9785 29.3563C35.9785 27.9125 36.8762 26.95 38.1192 26.95C39.3623 26.95 40.1909 27.9125 40.1909 29.2875ZM36.6 29.425C36.6 30.3875 37.1524 31.2813 38.0502 31.2813C39.017 31.2813 39.5694 30.3875 39.5694 29.3563C39.5694 28.4625 39.086 27.5 38.1192 27.5C37.0834 27.4313 36.6 28.3938 36.6 29.425Z" fill="currentcolor"/>
<path d="M44.1272 31.6938V27.0875H44.7487L46.2679 29.425C46.6132 29.975 46.8894 30.4563 47.0966 30.9375C47.0275 30.3188 47.0275 29.7688 47.0275 29.0125V27.0875H47.58V31.6938H46.9585L45.5083 29.3563C45.163 28.8063 44.8868 28.325 44.6106 27.8438C44.6796 28.3938 44.6796 29.0125 44.6796 29.7688V31.7625H44.1272V31.6938Z" fill="currentcolor"/>
<path d="M53.1736 29.6313V30.0438H51.4472V29.6313H53.1736Z" fill="currentcolor"/>
<path d="M57.7313 30.25L57.2479 31.6938H56.6264L58.2147 27.0875H58.9053L60.4936 31.6938H59.8721L59.3887 30.25H57.7313ZM59.2506 29.7688L58.7672 28.4625C58.629 28.1875 58.629 27.9125 58.4909 27.6375C58.4219 27.9125 58.3528 28.1875 58.2838 28.4625L57.8004 29.7688H59.2506Z" fill="currentcolor"/>
<path d="M64.2917 27.0188H64.9132V31.1438H66.9158V31.625H64.3607V27.0188H64.2917Z" fill="currentcolor"/>
<path d="M73.6143 31.5563C73.4072 31.6938 72.9238 31.7625 72.3713 31.7625C71.0592 31.7625 70.0924 30.9375 70.0924 29.425C70.0924 27.9813 71.0592 27.0188 72.5094 27.0188C73.0619 27.0188 73.4762 27.1563 73.6143 27.225L73.4762 27.7063C73.269 27.5688 72.9238 27.5 72.5094 27.5C71.4045 27.5 70.7139 28.1875 70.7139 29.425C70.7139 30.525 71.3355 31.2813 72.5094 31.2813C72.8547 31.2813 73.269 31.2125 73.4762 31.075L73.6143 31.5563Z" fill="currentcolor"/>
<path d="M81.3487 29.2875C81.3487 30.8688 80.3819 31.6938 79.2079 31.6938C77.9649 31.6938 77.1362 30.7313 77.1362 29.3563C77.1362 27.9125 78.034 26.95 79.277 26.95C80.52 26.95 81.3487 27.9125 81.3487 29.2875ZM77.6887 29.425C77.6887 30.3875 78.2411 31.2813 79.1389 31.2813C80.1057 31.2813 80.6581 30.3875 80.6581 29.3563C80.6581 28.4625 80.1747 27.5 79.2079 27.5C78.2411 27.4313 77.6887 28.3938 77.6887 29.425Z" fill="currentcolor"/>
<path d="M85.8374 27.0188V28.9438H88.1162V27.0188H88.7377V31.625H88.1162V29.425H85.8374V31.625H85.2159V27.0188H85.8374Z" fill="currentcolor"/>
<path d="M96.8174 29.2875C96.8174 30.8688 95.8506 31.6938 94.6766 31.6938C93.4336 31.6938 92.6049 30.7313 92.6049 29.3563C92.6049 27.9125 93.5026 26.95 94.7457 26.95C95.9887 26.95 96.8174 27.9125 96.8174 29.2875ZM93.2264 29.425C93.2264 30.3875 93.7789 31.2813 94.6766 31.2813C95.6434 31.2813 96.1959 30.3875 96.1959 29.3563C96.1959 28.4625 95.7125 27.5 94.7457 27.5C93.7098 27.4313 93.2264 28.3938 93.2264 29.425Z" fill="currentcolor"/>
<path d="M100.685 27.0188H101.306V31.1438H103.309V31.625H100.754V27.0188H100.685Z" fill="currentcolor"/>
<path d="M107.659 27.0188V31.625H107.038V27.0188H107.659Z" fill="currentcolor"/>
<path d="M115.048 31.5563C114.841 31.6938 114.358 31.7625 113.805 31.7625C112.493 31.7625 111.526 30.9375 111.526 29.425C111.526 27.9813 112.493 27.0188 113.943 27.0188C114.496 27.0188 114.91 27.1563 115.048 27.225L114.91 27.7063C114.703 27.5688 114.358 27.5 113.943 27.5C112.839 27.5 112.148 28.1875 112.148 29.425C112.148 30.525 112.769 31.2813 113.943 31.2813C114.289 31.2813 114.703 31.2125 114.91 31.075L115.048 31.5563Z" fill="currentcolor"/>
<path d="M123.404 30.9375C123.68 31.075 124.095 31.2125 124.509 31.2125C125.131 31.2125 125.476 30.8688 125.476 30.4563C125.476 30.0438 125.2 29.7688 124.578 29.5625C123.818 29.2875 123.335 28.875 123.335 28.2563C123.335 27.5688 123.957 27.0188 124.854 27.0188C125.338 27.0188 125.683 27.1563 125.89 27.225L125.752 27.7063C125.614 27.6375 125.269 27.5 124.854 27.5C124.233 27.5 123.957 27.8438 123.957 28.1875C123.957 28.6 124.233 28.8063 124.854 29.0813C125.614 29.3563 126.028 29.7688 126.028 30.4563C126.028 31.1438 125.476 31.7625 124.371 31.7625C123.957 31.7625 123.404 31.625 123.197 31.4875L123.404 30.9375Z" fill="currentcolor"/>
<path d="M130.034 27.0875C130.31 27.0188 130.724 27.0188 131.208 27.0188C131.829 27.0188 132.243 27.1563 132.52 27.4313C132.796 27.6375 132.934 27.9813 132.934 28.3938C132.934 28.8063 132.796 29.15 132.589 29.3563C132.243 29.7 131.76 29.8375 131.138 29.8375C130.931 29.8375 130.793 29.8375 130.655 29.7688V31.625H130.034V27.0875ZM130.586 29.3563C130.724 29.3563 130.862 29.425 131.069 29.425C131.76 29.425 132.243 29.0813 132.243 28.4625C132.243 27.8438 131.829 27.5688 131.138 27.5688C130.862 27.5688 130.655 27.5688 130.586 27.6375V29.3563Z" fill="currentcolor"/>
<path d="M137.423 27.0188V31.625H136.801V27.0188H137.423Z" fill="currentcolor"/>
<path d="M141.566 27.0875C141.842 27.0188 142.326 27.0188 142.74 27.0188C143.362 27.0188 143.776 27.1563 144.052 27.3625C144.259 27.5688 144.397 27.9125 144.397 28.2563C144.397 28.875 143.983 29.2875 143.5 29.425C143.845 29.5625 144.052 29.9063 144.19 30.3875C144.328 31.0063 144.466 31.4875 144.535 31.625H143.914C143.845 31.4875 143.707 31.075 143.569 30.525C143.431 29.9063 143.154 29.6313 142.671 29.6313H142.118V31.625H141.566V27.0875ZM142.188 29.2188H142.809C143.431 29.2188 143.845 28.875 143.845 28.325C143.845 27.7063 143.431 27.5 142.809 27.4313C142.533 27.4313 142.326 27.4313 142.188 27.5V29.2188Z" fill="currentcolor"/>
<path d="M148.955 27.0188V31.625H148.334V27.0188H148.955Z" fill="currentcolor"/>
<path d="M153.996 27.5688H152.615V27.0875H156.068V27.5688H154.618V31.6938H153.996V27.5688Z" fill="currentcolor"/>
<path d="M159.521 30.9375C159.797 31.075 160.211 31.2125 160.626 31.2125C161.247 31.2125 161.592 30.8688 161.592 30.4563C161.592 30.0438 161.316 29.7688 160.695 29.5625C159.935 29.2875 159.452 28.875 159.452 28.2563C159.452 27.5688 160.073 27.0188 160.971 27.0188C161.454 27.0188 161.8 27.1563 162.007 27.225L161.869 27.7063C161.731 27.6375 161.385 27.5 160.971 27.5C160.349 27.5 160.073 27.8438 160.073 28.1875C160.073 28.6 160.349 28.8063 160.971 29.0813C161.731 29.3563 162.145 29.7688 162.145 30.4563C162.145 31.1438 161.592 31.7625 160.488 31.7625C160.073 31.7625 159.521 31.625 159.314 31.4875L159.521 30.9375Z" fill="currentcolor"/>
</svg>
