<svg width="110" height="40" viewBox="0 0 110 40" fill="none" xmlns="http://www.w3.org/2000/svg">
<g clip-path="url(#clip0_16_26)">
<path d="M20.006 0C14.7001 0 9.61147 2.10777 5.85962 5.85962C2.10777 9.61147 0 14.7001 0 20.006C0 25.3119 2.10777 30.4005 5.85962 34.1524C9.61147 37.9042 14.7001 40.012 20.006 40.012C25.3119 40.012 30.4005 37.9042 34.1524 34.1524C37.9042 30.4005 40.012 25.3119 40.012 20.006C40.012 14.7001 37.9042 9.61147 34.1524 5.85962C30.4005 2.10777 25.3119 0 20.006 0V0ZM29.906 28.132L25.226 32.812V19.47L15.622 12.45V32.813L10.942 28.132V11.044L15.622 6.364L29.9 16.823V28.132H29.906ZM78.67 33.224H85.122V6.767H78.664V33.216L78.67 33.224ZM68.57 6.767H75.358L69.229 33.216H62.719L59.582 20.565C59.194 22.156 56.482 33.215 56.482 33.215H49.962L43.925 6.768H50.541L53.357 19.948C53.787 18.112 56.464 6.768 56.464 6.768H62.689L65.79 19.96C66.084 18.553 68.57 6.768 68.57 6.768V6.767ZM88.44 6.767V12.969H95.234V33.216H101.683V12.977H108.45V6.767H88.44Z" fill="currentcolor"/>
</g>
<defs>
<clipPath id="clip0_16_26">
<rect width="110" height="40" fill="currentcolor"/>
</clipPath>
</defs>
</svg>
